<?xml version="1.0" encoding="utf-8"?>
<!-- Generator: Adobe Illustrator 25.2.3, SVG Export Plug-In . SVG Version: 6.00 Build 0)  -->
<svg version="1.1" id="레이어_1" xmlns="http://www.w3.org/2000/svg" xmlns:xlink="http://www.w3.org/1999/xlink" x="0px"
	 y="0px" viewBox="0 0 68 68" style="enable-background:new 0 0 68 68;" xml:space="preserve">
<style type="text/css">
	.st0{fill:none;stroke:#222222;stroke-width:2.5512;stroke-linecap:round;stroke-linejoin:round;stroke-miterlimit:10;}
</style>
<path class="st0" d="M1.47,27.42l37.13,36.01H66.7v-6.87c0-7.15-1.22-10.71-8.36-10.71h-5.42L43.18,23.5c0,0-10.16,2.28-14.88-2.44
	c-2.29-2.29-3.28-5.43-3.44-9.16c-0.2-4.74-3-5.04-6.1-1.45C14.56,15.33,7.2,21.69,1.47,27.42z"/>
<polyline class="st0" points="9.52,21.52 42.66,55.4 65.88,55.4 "/>
<line class="st0" x1="37.46" y1="32.51" x2="45.48" y2="29.07"/>
<line class="st0" x1="38.61" y1="38.23" x2="47.78" y2="34.06"/>
<line class="st0" x1="42.04" y1="43.96" x2="50.06" y2="40.52"/>
<line class="st0" x1="13.41" y1="64.11" x2="66.7" y2="64.11"/>
<line class="st0" x1="4.83" y1="57.24" x2="31.74" y2="57.24"/>
</svg>
