<?xml version="1.0" encoding="utf-8"?>
<!-- Generator: Adobe Illustrator 25.2.3, SVG Export Plug-In . SVG Version: 6.00 Build 0)  -->
<svg version="1.1" id="레이어_1" xmlns="http://www.w3.org/2000/svg" xmlns:xlink="http://www.w3.org/1999/xlink" x="0px"
	 y="0px" viewBox="0 0 68 68" style="enable-background:new 0 0 68 68;" xml:space="preserve">
<style type="text/css">
	.st0{fill:none;stroke:#222222;stroke-width:2.3758;stroke-linecap:round;stroke-linejoin:round;stroke-miterlimit:10;}
	.st1{fill:#222222;}
	.st2{fill:#222222;stroke:#222222;stroke-width:0.9313;stroke-miterlimit:10;}
</style>
<g>
	<path class="st0" d="M63.07,52.23c-1.26-0.94-1.53-1.52-1.71-2.48c-0.29-1.51-0.22-1.34-0.23-2.77c-0.02-1.23,0.03-0.57,0.3-2.46
		c0.14-0.97,0.28-1.99,0.49-2.96l0.88-5.7c1.02-6.35-0.03-17.47-9.06-25.7c-6.68-6.09-13-7.13-18.71-7.1
		c-4.25,0.03-8.62,0.8-11.61,1.96l0,0c0,0-18.96,6.25-16.76,25.69c0.03,1.03,0.08,2.54,0.11,4.31c-0.07,1.55-0.07,3.03,0,4.43
		c0,0.09,0.02,0.19,0.03,0.28c-0.01,1.91-0.05,3.89-0.13,5.78c-0.19,3.07-0.95,9.57-4.11,9.32c0,0,3.77,2.47,10,3.16l0-0.01
		c2.29,0.32,4.97,0.35,7.94-0.24l3.1-0.44l-0.24-0.09c0.78-0.15,1.57-0.37,2.37-0.67c0-0.01,0-0.02,0-0.03l0.47-0.84
		c0.25-0.34,0.28-0.49,0.07-0.55c-0.42-0.07-0.85-0.14-1.27-0.23c-2.96-0.62-4.12-1.48-6.69-3.03c-0.16-0.1-0.32-0.19-0.47-0.29
		c-1.09-0.69-2.18-1.96-2.88-3.05c-0.77-1.18-1.15-2.7-1.33-4.08c-0.2-1.53,0.15-2.8,0.41-4.3c0.32-1.86,0.44-3.75,0.43-5.63
		c0-0.58-0.12-1.26-0.09-1.89c0.31,0.04,0.61,0.08,0.94,0.1c0.14,0.01,0.26,0,0.39,0.01l-0.01,0.01c0,0,18.61,1.32,31.14-8.62
		l-0.05-0.05c0.02-0.02,0.04-0.03,0.05-0.06l0.01,0.12c0.1,0.19,4.14,7.54,3.12,12.6l0,0c-0.06,0.96-0.25,1.92-0.67,2.76
		c-0.17,0.34,0.16,0.71,0.51,0.57c0.61-0.25,1.46-0.83,2.43-2.11c0.53-0.7,0.82-1.25,0.98-1.66c0.18-0.15,0.37-0.27,0.56-0.37
		c0.15-0.06,0.31-0.1,0.45-0.19c0.77-0.24,1.53-0.11,2.14,0.24c1.38,0.81,1.74,3.27,0.88,4.86c-1.37,2.76-3.9,3.91-5.27,3.1
		c-0.27-0.16-0.49-0.37-0.67-0.61c-0.64,2.1-1.51,3.95-2.65,5.39c-2.81,3.55-7.29,5.2-11.72,6.03l0,0c0,0-0.07,0.01-0.19,0.03
		c-0.35,0.06-0.7,0.12-1.05,0.18c-0.11,0.02-0.21,0.03-0.26,0.04c-0.26,0.04-0.19,0.42-0.19,0.42l0.47,1.29c0,0.01,0,0.02-0.01,0.04
		c0.47,0.17,8.8,3.17,16.58,2.02c8.01-1.18,12.3-4.58,13.21-5.62C64.53,53.19,63.85,52.82,63.07,52.23z"/>
	<g>
		<g>
			<path class="st1" d="M35.63,57.58l6.43,1.77l-4.72,7.38l-7.91-5.04l0.06-0.52C29.49,61.17,34.75,59.55,35.63,57.58z"/>
			<path class="st1" d="M25.74,57.46l-6.45,1.49l4.4,7.58l7.78-4.68l0.08-0.51C31.54,61.34,26.53,59.47,25.74,57.46z"/>
		</g>
		<path class="st1" d="M50.29,18.95c0.58,0.87-0.34,2.01-1.09,1.35c-4.36-3.8-9.71-5.73-15.17-5.98c-6.57-0.3-13.1,1.41-17.06,2.72
			c-0.85,0.28-1.39-1.07-0.66-1.68c3.88-3.23,11.19-7.56,21.12-5.67C43.61,10.88,47.76,15.18,50.29,18.95z"/>
		<g>
			<ellipse class="st1" cx="35.6" cy="40.5" rx="2.61" ry="2.45"/>
		</g>
		<g>
			<ellipse class="st1" cx="23.26" cy="40.5" rx="2.61" ry="2.45"/>
		</g>
		<path class="st2" d="M29.72,51.25c-2.49,0-4.38-1.54-4.41-1.56c-0.27-0.22-0.3-0.62-0.08-0.89c0.22-0.27,0.62-0.3,0.89-0.08l0,0
			c0.14,0.11,3.44,2.77,6.77,0.07c0.27-0.22,0.67-0.18,0.89,0.09c0.22,0.27,0.18,0.67-0.09,0.89
			C32.32,50.88,30.95,51.25,29.72,51.25z"/>
	</g>
</g>
</svg>
