<svg width="45" height="42" viewBox="0 0 45 42" fill="none" xmlns="http://www.w3.org/2000/svg">
<path d="M22.625 40.2866H21.475C21.475 40.9218 21.9899 41.4366 22.625 41.4366V40.2866ZM24.9167 23.4194H38.6667V21.1194H24.9167V23.4194ZM39.8083 24.5216V38.0345H42.1083V24.5216H39.8083ZM38.6667 39.1366H22.625V41.4366H38.6667V39.1366ZM23.775 40.2866V24.5216H21.475V40.2866H23.775ZM39.8083 38.0345C39.8083 38.6244 39.3161 39.1366 38.6667 39.1366V41.4366C40.5485 41.4366 42.1083 39.9322 42.1083 38.0345H39.8083ZM38.6667 23.4194C39.3161 23.4194 39.8083 23.9316 39.8083 24.5216H42.1083C42.1083 22.6238 40.5485 21.1194 38.6667 21.1194V23.4194ZM24.9167 21.1194C23.0348 21.1194 21.475 22.6238 21.475 24.5216H23.775C23.775 23.9316 24.2672 23.4194 24.9167 23.4194V21.1194Z" fill="#0D0D0D"/>
<path d="M22.625 40.2866V41.4366C23.2601 41.4366 23.775 40.9218 23.775 40.2866H22.625ZM6.58332 23.4194H20.3333V21.1194H6.58332V23.4194ZM21.475 24.5216V40.2866H23.775V24.5216H21.475ZM22.625 39.1366H6.58332V41.4366H22.625V39.1366ZM5.44166 38.0345V24.5216H3.14166V38.0345H5.44166ZM6.58332 39.1366C5.93386 39.1366 5.44166 38.6244 5.44166 38.0345H3.14166C3.14166 39.9322 4.70148 41.4366 6.58332 41.4366V39.1366ZM20.3333 23.4194C20.9828 23.4194 21.475 23.9316 21.475 24.5216H23.775C23.775 22.6238 22.2152 21.1194 20.3333 21.1194V23.4194ZM6.58332 21.1194C4.70148 21.1194 3.14166 22.6238 3.14166 24.5216H5.44166C5.44166 23.9316 5.93386 23.4194 6.58332 23.4194V21.1194Z" fill="#0D0D0D"/>
<path d="M40.9583 13.2607H24.9167C23.651 13.2607 22.625 14.2691 22.625 15.5129V20.0172C22.625 21.261 23.651 22.2694 24.9167 22.2694H40.9583C42.224 22.2694 43.25 21.261 43.25 20.0172V15.5129C43.25 14.2691 42.224 13.2607 40.9583 13.2607Z" stroke="#0D0D0D" stroke-width="2.3" stroke-linecap="round" stroke-linejoin="round"/>
<path d="M20.3333 13.2607H4.29167C3.02601 13.2607 2 14.2691 2 15.5129V20.0172C2 21.261 3.02601 22.2694 4.29167 22.2694H20.3333C21.599 22.2694 22.625 21.261 22.625 20.0172V15.5129C22.625 14.2691 21.599 13.2607 20.3333 13.2607Z" stroke="#0D0D0D" stroke-width="2.3" stroke-linecap="round" stroke-linejoin="round"/>
<path d="M22.625 13.2608H21.475C21.475 13.8959 21.9899 14.4108 22.625 14.4108V13.2608ZM21.475 7.63039V13.2608H23.775V7.63039H21.475ZM22.625 14.4108H28.3542V12.1108H22.625V14.4108ZM28.3542 14.4108C32.1345 14.4108 35.2333 11.3939 35.2333 7.63039H32.9333C32.9333 10.0861 30.9021 12.1108 28.3542 12.1108V14.4108ZM28.3542 0.85C24.5738 0.85 21.475 3.86691 21.475 7.63039H23.775C23.775 5.17471 25.8062 3.15 28.3542 3.15V0.85ZM28.3542 3.15C30.9021 3.15 32.9333 5.17471 32.9333 7.63039H35.2333C35.2333 3.86691 32.1345 0.85 28.3542 0.85V3.15Z" fill="#0D0D0D"/>
<path d="M22.625 13.2608V14.4108C23.2601 14.4108 23.775 13.8959 23.775 13.2608H22.625ZM21.475 7.63039V13.2608H23.775V7.63039H21.475ZM22.625 12.1108H16.8958V14.4108H22.625V12.1108ZM16.8958 12.1108C14.3479 12.1108 12.3167 10.0861 12.3167 7.63039H10.0167C10.0167 11.3939 13.1155 14.4108 16.8958 14.4108V12.1108ZM16.8958 3.15C19.4438 3.15 21.475 5.17471 21.475 7.63039H23.775C23.775 3.86691 20.6762 0.85 16.8958 0.85V3.15ZM16.8958 0.85C13.1155 0.85 10.0167 3.86691 10.0167 7.63039H12.3167C12.3167 5.17471 14.3479 3.15 16.8958 3.15V0.85Z" fill="#0D0D0D"/>
</svg>
