<?xml version="1.0" encoding="utf-8"?>
<!-- Generator: Adobe Illustrator 25.2.3, SVG Export Plug-In . SVG Version: 6.00 Build 0)  -->
<svg version="1.1" id="레이어_1" xmlns="http://www.w3.org/2000/svg" xmlns:xlink="http://www.w3.org/1999/xlink" x="0px"
	 y="0px" viewBox="0 0 68 68" style="enable-background:new 0 0 68 68;" xml:space="preserve">
<style type="text/css">
	.st0{fill:none;stroke:#222222;stroke-width:2.4571;stroke-linecap:round;stroke-linejoin:round;stroke-miterlimit:10;}
	.st1{fill:none;stroke:#222222;stroke-width:2.4866;stroke-linecap:round;stroke-linejoin:round;stroke-miterlimit:10;}
	.st2{fill:none;stroke:#222222;stroke-width:2.6744;stroke-linecap:round;stroke-linejoin:round;stroke-miterlimit:10;}
</style>
<g>
	<polyline class="st0" points="57.28,17.89 57.28,47.71 10.72,47.71 10.72,17.13 	"/>
	<path class="st0" d="M54.78,10.89c-1.38-0.2-2.24-7.74-2.24-7.74C41.67,5.4,34,5.33,34,5.33s-7.7-0.15-18.54-2.18
		c0,0-0.85,7.54-2.24,7.74c0,0-9.49,1.19-10.87,0c0,0,7.57,10.52,31.65,10.32c24.08,0.2,31.65-10.32,31.65-10.32
		C64.27,12.08,54.78,10.89,54.78,10.89z"/>
	<g>
		<rect x="16.32" y="29.05" class="st1" width="7.83" height="10.82"/>
		<rect x="30.09" y="29.05" class="st1" width="7.83" height="10.82"/>
		<rect x="43.86" y="29.05" class="st1" width="7.83" height="10.82"/>
	</g>
	<rect x="1.66" y="47.71" class="st2" width="64.68" height="17.48"/>
	<rect x="25.01" y="56.22" class="st2" width="17.99" height="8.97"/>
</g>
</svg>
