<?xml version="1.0" encoding="utf-8"?>
<!-- Generator: Adobe Illustrator 25.2.3, SVG Export Plug-In . SVG Version: 6.00 Build 0)  -->
<svg version="1.1" id="레이어_1" xmlns="http://www.w3.org/2000/svg" xmlns:xlink="http://www.w3.org/1999/xlink" x="0px"
	 y="0px" viewBox="0 0 68 68" style="enable-background:new 0 0 68 68;" xml:space="preserve">
<style type="text/css">
	.st0{fill:#222222;}
	.st1{fill:none;stroke:#222222;stroke-width:2.5512;stroke-linecap:round;stroke-linejoin:round;stroke-miterlimit:10;}
</style>
<g>
	<g>
		<path class="st0" d="M34,3.02c1.9,0,3.45,1.55,3.45,3.45v2.98h-6.9V6.47C30.55,4.57,32.1,3.02,34,3.02 M34,0.47L34,0.47
			c-3.31,0-6,2.69-6,6V12h12V6.47C40,3.16,37.31,0.47,34,0.47L34,0.47z"/>
	</g>
	<g>
		<path class="st0" d="M37.45,49.08v16.34h-6.9V49.08H37.45 M40,46.53H28v21.44h12V46.53L40,46.53z"/>
	</g>
	<g>
		<path class="st0" d="M37.45,26.6v2.89h-6.9V26.6H37.45 M40,24.05H28v7.99h12V24.05L40,24.05z"/>
	</g>
	<g>
		<path class="st0" d="M54.96,12.17l6.95,5.56l-7.04,6.33H7.58l3.35-4.58c0.81-1.11,0.8-2.59-0.02-3.69l-2.7-3.62H54.96 M55.03,9.62
			H4.9c-0.73,0-1.15,0.84-0.71,1.42l4.68,6.27c0.15,0.2,0.15,0.47,0,0.66L3.59,25.2c-0.43,0.59-0.01,1.42,0.72,1.42h50.64
			c0.58,0,1.13-0.21,1.56-0.6l7.29-6.56c1.07-0.96,1.02-2.66-0.1-3.56l-7.21-5.77C56.08,9.8,55.56,9.62,55.03,9.62L55.03,9.62z"/>
	</g>
	<path class="st1" d="M59.13,40.03l4.68,6.27c0.44,0.59,0.02,1.42-0.71,1.42H12.97c-0.53,0-1.04-0.18-1.46-0.51l-7.21-5.77
		c-1.12-0.9-1.17-2.59-0.1-3.56l7.29-6.56c0.43-0.39,0.98-0.6,1.56-0.6h50.64c0.73,0,1.15,0.83,0.72,1.42l-5.28,7.22
		C58.98,39.57,58.98,39.84,59.13,40.03z"/>
	<line class="st1" x1="32.75" y1="14.94" x2="50.57" y2="14.94"/>
	<line class="st1" x1="54.11" y1="14.94" x2="56.82" y2="17.65"/>
	<line class="st1" x1="14.23" y1="42.51" x2="35.34" y2="42.51"/>
</g>
</svg>
