<?xml version="1.0" encoding="utf-8"?>
<!-- Generator: Adobe Illustrator 25.2.3, SVG Export Plug-In . SVG Version: 6.00 Build 0)  -->
<svg version="1.1" id="레이어_1" xmlns="http://www.w3.org/2000/svg" xmlns:xlink="http://www.w3.org/1999/xlink" x="0px"
	 y="0px" viewBox="0 0 68 68" style="enable-background:new 0 0 68 68;" xml:space="preserve">
<style type="text/css">
	.st0{fill:none;stroke:#222222;stroke-width:2.2854;stroke-linecap:round;stroke-linejoin:round;}
	.st1{fill:#222222;}
</style>
<g>
	<g>
		<path class="st0" d="M26.88,46.06c-3.4,1.61-7.33,2.16-11.3,1.33C5.9,45.36-0.32,35.87,1.7,26.18s11.52-15.9,21.21-13.88
			c8.35,1.74,14.11,9.03,14.26,17.21"/>
		<path class="st0" d="M22.38,36.07c-0.79,1.7-2.81,2.29-4.81,1.88c-2.34-0.49-3.44-2.14-3.66-3.64"/>
	</g>
	<circle class="st1" cx="14.96" cy="25.46" r="1.75"/>
	<circle class="st1" cx="25.23" cy="27.61" r="1.75"/>
</g>
<g>
	<g>
		<path class="st0" d="M31.15,14.79c2.05-7.76,9.12-13.48,17.52-13.48c10.01,0,18.12,8.11,18.12,18.12c0,5.19-2.18,9.87-5.68,13.17"
			/>
	</g>
	<circle class="st1" cx="43.14" cy="14.16" r="1.8"/>
	<circle class="st1" cx="53.95" cy="14.16" r="1.8"/>
	<path class="st0" d="M54.53,21.32c-1.12,1.75-3.34,2.94-5.89,2.94c-2.56,0-4.78-1.19-5.89-2.94"/>
</g>
<g>
	<circle class="st0" cx="47.2" cy="47.28" r="19.58"/>
	<path class="st0" d="M37.92,46.36c-0.25-1.62,0.86-3.14,2.49-3.39c1.62-0.25,3.14,0.86,3.39,2.49"/>
	<path class="st0" d="M52.46,52.16c-0.14,1.93-1.88,3.23-3.97,3.55c-2.43,0.37-4.1-0.82-4.85-2.2"/>
	<path class="st0" d="M49.8,43.81c-0.25-1.62,0.86-3.14,2.49-3.39c1.62-0.25,3.14,0.86,3.39,2.49"/>
</g>
</svg>
