<?xml version="1.0" encoding="utf-8"?>
<!-- Generator: Adobe Illustrator 25.2.3, SVG Export Plug-In . SVG Version: 6.00 Build 0)  -->
<svg version="1.1" id="레이어_1" xmlns="http://www.w3.org/2000/svg" xmlns:xlink="http://www.w3.org/1999/xlink" x="0px"
	 y="0px" viewBox="0 0 68 68" style="enable-background:new 0 0 68 68;" xml:space="preserve">
<style type="text/css">
	.st0{fill:none;stroke:#222222;stroke-width:2.5512;stroke-linecap:round;stroke-linejoin:round;}
	.st1{fill:none;stroke:#1B1B1B;stroke-width:2.5512;stroke-linecap:round;stroke-linejoin:round;}
	.st2{fill:#222222;}
</style>
<g>
	<path class="st0" d="M49.95,59.19c3.13,0.78,5.07,1.85,5.07,3.04c0,1.19-1.94,2.26-5.07,3.04c-3.13,0.78-7.46,1.26-12.24,1.26
		c-4.78,0-9.11-0.48-12.24-1.26c-3.13-0.78-5.07-1.85-5.07-3.04c0-1.19,1.94-2.26,5.07-3.04"/>
	<g>
		<path class="st1" d="M42.62,26.19c3.03,0.56,5.76,2.18,7.75,4.53c0.23,0.27,0.47,0.56,0.75,0.87c1.15,1.3,2.11,2.77,2.85,4.36
			c0.74,1.59,1.24,3.32,1.48,5.12c-0.68-0.32-1.62-0.62-2.78-0.88c-1.16-0.27-2.54-0.5-4.09-0.69c-1.55-0.19-3.27-0.35-5.11-0.45
			c-1.84-0.11-3.81-0.16-5.85-0.16c-1.99,0-3.91,0.05-5.72,0.15c-1.8,0.1-3.49,0.25-5.02,0.43c-1.53,0.19-2.9,0.41-4.06,0.66
			c-1.16,0.25-2.12,0.54-2.83,0.85c0.25-1.8,0.76-3.51,1.5-5.09c0.74-1.58,1.7-3.04,2.85-4.33c1.15-1.29,2.48-2.41,3.95-3.33
			c1.47-0.92,3.09-1.62,4.81-2.08v-5.73v-4.6v-3.69V6.39h-0.17h-0.17h-0.17h-0.17c-0.31,0-0.6-0.06-0.87-0.18
			c-0.27-0.11-0.51-0.28-0.71-0.48c-0.2-0.2-0.37-0.44-0.48-0.71c-0.11-0.27-0.18-0.56-0.18-0.87c0-0.31,0.06-0.6,0.18-0.87
			c0.11-0.27,0.28-0.51,0.48-0.71c0.2-0.2,0.44-0.37,0.71-0.48c0.27-0.11,0.56-0.18,0.87-0.18h2.64h2.64h2.64h2.64
			c0.31,0,0.6,0.06,0.87,0.18c0.27,0.11,0.51,0.28,0.71,0.48c0.2,0.2,0.37,0.44,0.48,0.71s0.18,0.56,0.18,0.87
			c0,0.31-0.06,0.6-0.18,0.87c-0.11,0.27-0.28,0.51-0.48,0.71c-0.2,0.2-0.44,0.37-0.71,0.48c-0.27,0.11-0.56,0.18-0.87,0.18h-0.17
			h-0.17H42.5h-0.17v5.73v3.69v4.6v5.73C42.33,26.14,42.44,26.16,42.62,26.19z"/>
		<g>
			<path class="st0" d="M19.8,43.44C19.8,43.44,19.8,43.44,19.8,43.44c0,9.9,8.02,17.92,17.91,17.92c9.89,0,17.91-8.02,17.91-17.91
				c0-0.03,0-0.07,0-0.1c-2.57,1.32-9.66,2.28-18,2.28C29.46,45.62,22.51,44.71,19.8,43.44z"/>
			<path class="st0" d="M37.61,38.88c-7.97,0-14.8,0.87-17.63,2.1c-0.11,0.81-0.18,1.63-0.18,2.46c2.72,1.27,9.67,2.18,17.82,2.18
				c8.35,0,15.43-0.95,18-2.28c0-0.77-0.07-1.53-0.17-2.28C52.75,39.79,45.78,38.88,37.61,38.88z"/>
		</g>
	</g>
	<polygon class="st0" points="14.03,3.96 17.07,10.14 23.89,11.13 18.96,15.94 20.13,22.73 14.03,19.53 7.93,22.73 9.09,15.94 
		4.16,11.13 10.98,10.14 	"/>
	<path class="st2" d="M63.84,24.72c0,2.44-1.97,4.41-4.41,4.41c-2.44,0-4.41-1.97-4.41-4.41c0-2.44,1.97-4.41,4.41-4.41
		C61.87,20.32,63.84,22.29,63.84,24.72z"/>
</g>
</svg>
