<?xml version="1.0" encoding="utf-8"?>
<!-- Generator: Adobe Illustrator 25.2.3, SVG Export Plug-In . SVG Version: 6.00 Build 0)  -->
<svg version="1.1" id="레이어_1" xmlns="http://www.w3.org/2000/svg" xmlns:xlink="http://www.w3.org/1999/xlink" x="0px"
	 y="0px" viewBox="0 0 68 68" style="enable-background:new 0 0 68 68;" xml:space="preserve">
<style type="text/css">
	.st0{fill:none;stroke:#222222;stroke-width:2.5512;stroke-linecap:round;stroke-linejoin:round;stroke-miterlimit:10;}
	.st1{fill:#222222;}
	.st2{fill:#FFFFFF;stroke:#222222;stroke-width:2.5512;stroke-linecap:round;stroke-linejoin:round;stroke-miterlimit:10;}
	.st3{fill:none;stroke:#222222;stroke-width:2.8346;stroke-linecap:round;stroke-linejoin:round;stroke-miterlimit:10;}
</style>
<g>
	<path class="st0" d="M23.2,15.2c4.47-5.48,11.28-8.98,18.91-8.98c13.47,0,24.39,10.92,24.39,24.39S55.58,55,42.11,55
		c-1.07,0-2.13-0.07-3.17-0.2"/>
	<rect x="17.72" y="3.2" class="st0" width="4.85" height="30.2"/>
	<rect x="11.78" y="33.39" class="st0" width="16.72" height="7.24"/>
	<rect x="8.41" y="40.63" class="st0" width="23.45" height="10.11"/>
	<rect x="1.69" y="50.74" class="st0" width="36.9" height="15.8"/>
	<circle class="st1" cx="44.8" cy="23.42" r="2.13"/>
	<circle class="st1" cx="31.99" cy="23.42" r="2.13"/>
	<line class="st2" x1="33.68" y1="34.05" x2="42.22" y2="34.05"/>
	<path class="st3" d="M50.37,38.39c0,0-4.44,10.89-24.81,7.31"/>
</g>
</svg>
