<?xml version="1.0" encoding="utf-8"?>
<!-- Generator: Adobe Illustrator 25.2.3, SVG Export Plug-In . SVG Version: 6.00 Build 0)  -->
<svg version="1.1" id="레이어_1" xmlns="http://www.w3.org/2000/svg" xmlns:xlink="http://www.w3.org/1999/xlink" x="0px"
	 y="0px" viewBox="0 0 68 68" style="enable-background:new 0 0 68 68;" xml:space="preserve">
<style type="text/css">
	.st0{fill:none;stroke:#222222;stroke-width:2.5512;stroke-linecap:round;stroke-linejoin:round;}
	.st1{fill:#FFFFFF;stroke:#222222;stroke-width:3.3493;stroke-linecap:round;stroke-linejoin:round;stroke-miterlimit:10;}
	.st2{fill:#FFFFFF;stroke:#222222;stroke-width:2.5512;stroke-linecap:round;stroke-linejoin:round;}
</style>
<g>
	<path class="st0" d="M11.99,50.97l-5.32,5.32l-4-0.68c-0.41-0.07-0.79,0.23-0.81,0.65c-0.07,1.44,0.57,3.66,1.48,4.57l1.87,1.99
		c0.87,0.87,2.99,1.63,4.47,1.62c0.55,0,0.95-0.51,0.88-1.06l-0.47-3.68l3.02-3.02"/>
	<path class="st0" d="M49.39,34.14l-1.42-1.56c4.54-3.66,10.7-4.3,17.61-2.74L37.67,1.93c2.03,7.16,1.21,15.52-4.27,21.01l-0.2,0.2
		c-0.39,0.48-1.01,1.03-1.42,1.44L16.33,40.02c-5.79,5.79-5.79,15.17,0,20.95l0.79,0.79c5.79,5.79,15.17,5.79,20.95,0l9.47-9.1
		l1.64-1.72C53.65,46.26,53.74,38.92,49.39,34.14z M44.5,48.2l-9.63,9.63c-1.91,1.91-5,1.91-6.91,0c-1.91-1.91-1.91-5,0-6.91
		l15.17-15.17l1.37,1.37C47.56,40.18,47.56,45.14,44.5,48.2z"/>
	<line class="st1" x1="31.92" y1="47.5" x2="37.92" y2="53.5"/>
	<line class="st1" x1="37.88" y1="41.54" x2="43.84" y2="47.5"/>
	<g>
		<line class="st2" x1="23" y1="26.1" x2="26.57" y2="29.67"/>
		<line class="st2" x1="20.78" y1="27.76" x2="24.1" y2="24.44"/>
	</g>
	<g>
		<line class="st2" x1="15.87" y1="32.82" x2="19.44" y2="36.39"/>
		<line class="st2" x1="13.64" y1="34.48" x2="16.96" y2="31.16"/>
	</g>
	<line class="st2" x1="27.07" y1="36.7" x2="36.69" y2="27.52"/>
	<path class="st2" d="M39.8,23.59c0,0,1.19-0.77,1.6-3.89"/>
</g>
</svg>
