<?xml version="1.0" encoding="utf-8"?>
<!-- Generator: Adobe Illustrator 25.2.3, SVG Export Plug-In . SVG Version: 6.00 Build 0)  -->
<svg version="1.1" id="레이어_1" xmlns="http://www.w3.org/2000/svg" xmlns:xlink="http://www.w3.org/1999/xlink" x="0px"
	 y="0px" viewBox="0 0 68 68" style="enable-background:new 0 0 68 68;" xml:space="preserve">
<style type="text/css">
	.st0{fill:none;stroke:#222222;stroke-width:2.5512;stroke-linecap:round;stroke-linejoin:round;stroke-miterlimit:10;}
	.st1{fill:none;stroke:#222222;stroke-width:2.4782;stroke-linecap:round;stroke-linejoin:round;}
	.st2{fill:#FFFFFF;stroke:#222222;stroke-width:2.5512;stroke-linecap:round;stroke-linejoin:round;stroke-miterlimit:10;}
</style>
<g>
	<path class="st0" d="M45.37,44.43c-1.51,2.82-5.03,4.45-8.45,2.94l-2.11-0.93c-2.61-1.15-5.67-0.48-7.56,1.66l-1.53,1.73
		c-3.76,4.27-10.81,2.04-11.43-3.62l-0.25-2.29c-0.31-2.84-2.42-5.15-5.22-5.71l-2.26-0.46c-5.58-1.12-7.17-8.34-2.58-11.71
		l1.86-1.36c2.3-1.69,3.25-4.67,2.34-7.38l-0.74-2.19c-1.82-5.4,3.64-10.38,8.85-8.08l2.11,0.93c2.61,1.15,5.67,0.48,7.56-1.66
		l1.53-1.73c3.76-4.27,10.81-2.04,11.43,3.62l0.25,2.29c0.31,2.84,2.42,5.15,5.22,5.71l2.26,0.46c5.58,1.12,7.17,8.34,2.58,11.71
		l-0.74,0.54"/>
	<path class="st0" d="M18.8,39.2l-0.21-1.62c-0.41-3.11-3.53-4.68-6.12-3.78"/>
	<path class="st0" d="M16.31,13.32c-2.3,0.74-3.91,3.26-3.01,5.92"/>
	<g>
		<g>
			<line class="st1" x1="53.45" y1="50.89" x2="57.88" y2="50.89"/>
			<circle class="st0" cx="62.29" cy="50.72" r="4.41"/>
		</g>
		<g>
			<line class="st1" x1="50.54" y1="54.21" x2="50.59" y2="58.06"/>
			<circle class="st0" cx="50.81" cy="62.46" r="4.41"/>
		</g>
		<path class="st0" d="M35.63,22.95l10.88,23.36c5.95-3.23,7.94-5.9,5.04-12.13C48.65,27.96,42.39,22.46,35.63,22.95z"/>
		<circle class="st0" cx="49.12" cy="50.04" r="4.41"/>
	</g>
	<line class="st2" x1="51.3" y1="3.35" x2="49.77" y2="8.88"/>
	<line class="st2" x1="62.9" y1="9.96" x2="56.14" y2="14.11"/>
</g>
</svg>
