<svg id="레이어_1" data-name="레이어 1" xmlns="http://www.w3.org/2000/svg" viewBox="0 0 30.58 29.9">
<defs> 
   <style>
   </style>
</defs>
<path class="cls-1" d="M7.62,29.9A7.55,7.55,0,0,1,0,22.21a8.66,8.66,0,0,1,2.37-5.87L17.28.4a1.25,1.25,0,0,1,1.83,1.7l-14.92,16A6.13,6.13,0,0,0,2.5,22.22,5.08,5.08,0,0,0,8,27.39a6.16,6.16,0,0,0,4.05-2L26.94,9.52A3.78,3.78,0,0,0,27,4.19a3.78,3.78,0,0,0-5.31.44L10.07,17.07A1.89,1.89,0,0,0,10,19.71a1.89,1.89,0,0,0,2.64-.25L22.39,9a1.25,1.25,0,1,1,1.83,1.71L14.46,21.17a4.38,4.38,0,0,1-6.17.37,4.38,4.38,0,0,1,0-6.18L19.88,2.92a6.27,6.27,0,0,1,8.85-.55,6.28,6.28,0,0,1,0,8.86L13.9,27.12a8.62,8.62,0,0,1-5.7,2.76Z" transform="translate(0)"/>
</svg>